<?xml version="1.0" encoding="UTF-8"?>
<svg id="Layer_1" data-name="Layer 1" xmlns="http://www.w3.org/2000/svg" viewBox="140 -10 420 420">
  <defs>
    <style>
      .cls-1 {
        fill: #1e293b;
      }

      .cls-1, .cls-2 {
        stroke: #1e293b;
        stroke-miterlimit: 10;
        stroke-width: 3px;
      }
    </style>
  </defs>
  <path class="cls-2" d="M700.76,152.92h-52.13s-25.21,0-25.21,0c-10.67,0-20.61-1.17-30.9-3.17-5.28-1.03-10.38-1.82-15.72-2.09-7.37,0-13.11,3.98-15.61,10.98l-13.71,38.51-20.44-73.26c-.27-.95-1.14-1.39-1.35-1.21-.21.18-.76.63-.95,1.08l-17.53,41.61c-4.08,9.67-11.73,19.38-21.98,22.67-1.06-17.9,4.28-33.51,10.07-49.88,1.18-3.33,4.67-12.28,2.15-14.63-.55-.51-1.94-.79-3.05-1,5.84-41-20.63-74.2-54.01-94.25C395.58,1.41,337.62-5.01,287.35,7.99c-42.25,10.93-77.54,39.04-90.76,81.45-4.08,13.11-5.77,26.25-5.69,40.02.14,23.76,7.54,42.25,20.29,61.87l13.43,20.65c6.45,9.91,11.57,20.04,16.16,30.88,2.02,4.77,6.82,15.09,12.32,15.14,9.23.08,15.09-29.6,15.67-36.98l5.59,6.06c-.99,8.47-1.5,16.98-.73,25.57.2,2.2.91,4.28,2.13,6.03,1.74,2.49,5.47,3.05,7.78.68,6.56-6.72,11.23-15.13,13.43-24.34.49-2.06.36-4.11-.66-5.74-3.81-6.13-14.68.12-19.41-3.46,1.46-8.72,3.99-18.53,9.59-25.26,5.15-6.19,13.43-7.92,20.65-4.32,4.04,2.01,7.75,4.38,11.37,7.17,17.62,13.61,40.22,9.95,55.67-5.05,19.48,6.16,36.5-15.64,47.04-28.68,2.83-3.5,6.82-5.56,10.95-7.33l13.99-5.99c1.17,1.6,2.74,3.24,4.53,3.56,1.58.28,3.78-.53,4.96-1.88l10.7-12.33c6.91-7.96,14.53-16.34,24.65-19.93,1.04,2.14-4.19,16.6-5.31,19.57-5.42,14.48-8.16,28.94-8.2,44.69-13.5,1.9-23.69-1.19-37.08-1.8-.65-.03-2.06.85-2.16,1.44-.1.59.72,1.81,1.39,2.06,8.38,3.11,16.84,5.19,25.78,6.43,5.11.71,12.33.12,13.8-5.93,1.14-.43,2.61-.78,3.97-.96,1.44,14.01,11.35,31,17.8,43.55l5.29,10.27c2.47,4.79-4.47,8.73-8.05,10.25l-10.34,4.39c-3.23,1.37-4.83,4.55-4.19,7.91l1.37,7.19c.42,2.21-.79,4.21-2.88,4.77l-6.44,1.73c-1.46.39-3.01,1.65-3.43,2.74-1.66,4.29,3.09,7.21,2.68,10.51-.53,4.24-9.8,3.65-14.08,13.24-1.65,3.69-2.8,7.69-3.52,11.76l-2.67,15.05c-3.31,18.62-22.77,22.85-38.82,18.01l-17.01-5.12c-9.51-2.86-20.9-4.89-26.04,5.76-2.06,4.28-3.26,8.85-3.99,13.67-1.33,8.83-2.07,17.39-2.18,26.41l-.49,38.85c-.07,5.36-.46,33.69-4.78,35.45-4.33,1.77-17.31-30.41-19.07-34.76l-22.41-55.66c-7.28-18.09-17.13-37.5-30.21-51.93-16.29-17.79-37.55-26.39-60.25-12.27,3.77-37.98-4.09-84.62-25.27-116.56-.26-.39-1.13-.94-1.52-.96s-.88.69-1.11,1.29l-14.29,35.65-26.2-138.22c-.4-2.11-1.31-1.88-1.6-1.79-.19.06-.63.28-.79.97l-24.92,107.2-16.31-56.8c-.1-.35-1.54-.5-1.83-.39l-3.47,9.53H2.1c.23.67.32,1.4.29,2.12h110.28c2.57,0,2.09-4.67,3.85-6.57l16.09,56.54c.16.57.69,1.32,1.04,1.55s1.29-.66,1.42-1.21l24.24-104.57c.05-.22.36-.96.4-.82.05.17.09.26.14.39l.31.81.25,1.27,25.47,134.6c.22,1.14,1.15,1.38,1.43,1.22.2-.11.74-.59.93-1.07l14.91-38.13c20.59,31.42,28.28,79.11,23.81,115.62-8.84,6.62-15.82,14.8-21.05,24.63-7.91,14.86-12.86,31-15.03,47.74-.49,3.77-1.14,14.87,3.38,15.89,5.28,1.19,12.12-9.4,14.56-13.73,11.05-19.62,17.54-50.41,20.27-73.09,12.99-9.32,28.37-10.63,42.65-2.61,22.54,12.65,37.45,42.86,46.81,66.12l21.28,52.89c3.73,9.28,7.55,18,12,26.87,1.64,3.26,6.12,11.42,9.99,10.57,1-.22,2.48-1.52,2.93-2.68,3.97-10.36,3.57-31.04,3.8-42.74l.78-39.31c.14-7.15,1.04-13.89,2.32-20.84.7-3.83,1.9-7.48,3.68-10.84,4.65-8.77,15.28-6.19,23.33-3.77l16.62,4.99c6.71,2.02,13.61,2.43,20.41,1.27,11.13-1.89,19.33-10.08,21.3-21.09l2.91-16.26c1.31-7.31,3.84-14.24,10.68-17.54,3.43-1.66,8.74-4.65,6.31-9.33l-2.36-4.54c-.59-1.14-.09-3.23,1.3-3.6l6.35-1.7c12.08-3.24-2.04-16.6,7.01-20.39l9.82-4.12c5.38-2.25,12.62-7.03,9.14-13.78l-4.71-9.14c-6.34-12.3-17.03-30.58-17.97-44.13,11.67-3.98,19.48-13.8,24.07-24.69l15.6-37.05.35-.83c.06-.15.36-.08.4.07l.24.85,4.21,15.13,16.1,57.87c.14.51,1.78.79,1.93.37l15.17-43.19c2.13-6.07,7.66-9.23,13.72-9.01,11.13.4,26.12,5.06,39.48,5.06h83.96c-.1-.68-.07-1.4.08-2.08ZM444.26,191.05c2.19-.23,4.18-.07,6.3.26,8.72,1.33,17.09,1.93,26.06,1.23-2.15,8.1-27.21-.12-32.37-1.49ZM291.61,228.81c2.38.26,3.87,2.39,3.34,4.93-1.95,9.26-6.63,17.33-12.9,24.03-1.22,1.3-3.58.97-4.47-.41-.94-1.45-1.59-3.23-1.74-5.06-.67-8.12-.34-16.13.73-23.94,6.56,2.18,8.3-.29,15.05.44ZM373.55,195.56c-5.31-2.89-8.56-8.46-7.53-14.26.55-3.09,2.73-6.08,5.91-6.03,4.11.07,6.64,3.94,6.76,7.9.13,4.71-1.9,8.83-5.14,12.39ZM431.05,160.35c-4.25,1.96-8.41,4.03-11.39,7.7-9.54,11.74-26.21,33.48-43.73,28.33,5.22-6.13,7.66-16.56.91-21.69-3.53-2.68-8.12-2.11-10.74,1.22-5.35,6.82-1.69,16.88,5.84,21.4-14.36,13.71-35.4,17.02-51.82,4.46-3.66-2.8-7.42-5.2-11.41-7.27-9.57-4.98-20.2-1.78-25.94,7.25-4.36,6.85-6.21,14.32-8.04,22.49-2.65-2.6-4.2-4.88-5.87-7.62.37-12.36-3.1-23.99-9.74-34.39-7.5-11.76-15.14-18.26-22.5-29.61,8.37-4.67,19.63,3.17,25.44,8.89,1.44,1.42,3.12,2.75,4.82,3.71,2.68,1.51,5.43.68,7.36-1.49,1.19-1.75,2.29-3.58,3.01-5.71l14.68-43.69,24.02,70.42c.15.44.69.97.98,1.05.39.11,1.18-.62,1.36-1.07l19.09-48.4,7.49,16.81,52.32-.02,8.07-18.07,10.61,31.39c.1.3.68.81.92.85.33.06,1.11-.58,1.23-.98l14.87-51.41,12.2,39.34-14.05,6.1ZM266.65,212.98c-3.04-4.24-6.35-8.12-10.64-11.58l-12.62-10.17c-8.88-7.64-16.7-17.44-13.35-29.93.76-2.82,2.39-5.38,4.62-7.4,7.4,11.11,15.5,18.38,22.65,29.61,5.69,8.94,9.08,18.81,9.34,29.47ZM447.07,152.79l-13.04-42.28c-.1-.33-.69-.89-.96-1.01-.27-.12-1.1.49-1.2.85l-15.02,51.84-10.37-30.72c-.1-.31-.6-.81-.82-.9-.3-.12-1.17.36-1.35.77l-8.56,19.63-49.35.05-7.88-17.95c-.15-.33-.69-.81-.95-.96-.26-.15-1.12.43-1.34.98l-19.02,48.09-24.17-70.71c-.14-.41-.76-1-1.08-1.07-.32-.06-1.07.54-1.17.87l-16.14,48.47c-.66,1.99-2.38,4.41-4.26,4.86-4.74,1.12-9.22-9.63-22.55-13.74-4.11-1.27-8.33-1.33-12.22.69-2.88-4.69-3.46-9.89-3.38-15.35.13-9.1,3.16-17.66,9.63-24.19,14.38,3.87,28.62-2.75,35.3-15.85,2.74-5.36,4.67-10.82,6.95-16.66,6.89,5.53,16.95,4.4,22.04-2.65,1.63-2.26,1.9-5.12.85-7.82-2.17-5.58-10.44-6.31-16.42-2.15-3.06,2.13-5.08,5.05-7.18,8.43-5.11-6.91-1.83-16.98,2.94-23.29,14.02-18.56,41.44-22.43,61.81-12.12,6.87,3.48,12.4,8.28,16.66,14.88-9.58,5.99-20.22,15.19-20.93,27.16-.48,7.98,5.71,14.17,13.62,13.66,6.01-.39,10.91-3.76,13.53-9.11,5.11-10.42,2.06-20.96-3.02-30.86,22.3-11.66,50.55-8.23,70.63,6.15,8.09,5.79,14.29,13.12,18.6,22.11,10.3,21.48,11.41,54.39-10.16,69.89ZM241.14,108.28c-10.23-3.38-11.73-12.6-9.1-22.24,3.51-11.82,17.36-24.22,29.93-22.44,5.7.8,9.27,5.73,8.37,11.41-.73,4.63-3.15,8.56-5.92,12.36-7.13,8.37-15.21,13.14-23.29,20.92ZM285.18,76.45c2.08-5.93,8.45-11.99,15.14-10.9,2.02.33,3.93,1.78,4.54,3.18.87,1.99.63,4.36-.68,6.05-4.52,5.79-13.03,6.76-19,1.68ZM366,55.79c4.8,8.86,7.65,19.17,3.25,28.2-2.22,4.95-6.72,8.3-12.49,8.39-6.56.11-11.07-5.15-10.66-11.42.7-10.83,11-19.94,19.9-25.17ZM466.1,142.57l-11.77,13.68c-.85.99-2.54,1.69-3.73,1.31-.94-.3-2.22-1.73-2.25-2.79,22.41-16.45,21.73-50,10.93-72.75-15.86-33.4-60.53-45.87-92.51-29.33-12.59-20.05-40.53-26.25-61.65-18.31-8.98,3.49-16.49,9.07-21.79,17.05-4.82,7.25-7.19,17.94-1,25.27-2.27,6.07-4.27,11.76-7.14,17.38-5.97,11.7-18.4,18.1-31.55,15.06,9.89-9.77,26.29-18.43,28.86-33.63,1.24-7.3-3.52-13.3-10.54-14.15-13.59-1.65-27.97,11.01-31.93,23.66-2.87,10.2-1.82,20.44,9.42,25.19-9.87,10.38-12.54,29.34-5.84,41.64-3.2,2.7-5.14,6.01-6,9.96-3.02,13.85,6.03,24.39,16.04,32.52l11.92,9.68c4.7,3.81,8.32,8.39,11.18,13.72-.17,8.73-5.37,32.96-12.29,37.66-4.31,2.92-10.38-10.44-11.62-13.37-4.68-11.13-10-21.5-16.6-31.64l-12.88-19.8c-11.13-17.11-18.8-34.13-19.99-54.82-2.4-41.63,13.62-79.97,47.92-104.24,14.18-10.04,30.08-17.16,47.1-21.49,35.64-9.06,73.13-8.3,108.46,1.81,36.18,10.35,74.61,33.76,89.87,69.53,5.68,13.31,7.62,27.65,5.26,41.85-10.72,2.95-18.85,11.41-25.88,19.38ZM483.01,188.46c-.8.61-1.91.91-3.2.93-.14-15.09,2.79-29.3,7.99-43.32,2.49-6.7,4.48-13.01,6.02-20.05.21-.95,5.27-5.28-.55,11.18-6.02,17.01-11.4,32.77-10.27,51.25ZM207.53,386.9c-1.85,3.44-8.7,14.23-12.45,13.82-3.26-.35-2.13-12.77-1.79-15.58,3.8-23.41,13.31-52.09,33.27-67.25-2.63,21.69-8.93,50.23-19.03,69.01Z"/>
  <path class="cls-1" d="M207.53,386.9c-1.85,3.44-8.7,14.23-12.45,13.82-3.26-.35-2.13-12.77-1.79-15.58,3.8-23.41,13.31-52.09,33.27-67.25-2.63,21.69-8.93,50.23-19.03,69.01Z"/>
  <path class="cls-1" d="M373.55,195.56c-5.31-2.89-8.56-8.46-7.53-14.26.55-3.09,2.73-6.08,5.91-6.03,4.11.07,6.64,3.94,6.76,7.9.13,4.71-1.9,8.83-5.14,12.39Z"/>
  <path class="cls-1" d="M493.28,137.21c-6.02,17.01-11.4,32.77-10.27,51.25-.8.61-1.91.91-3.2.93-.14-15.09,2.79-29.3,7.99-43.32,2.49-6.7,4.48-13.01,6.02-20.05.21-.95,5.27-5.28-.55,11.18Z"/>
</svg>